<?xml version="1.0" encoding="utf-8"?>
<!-- Generator: Adobe Illustrator 17.0.0, SVG Export Plug-In . SVG Version: 6.00 Build 0)  -->
<!DOCTYPE svg PUBLIC "-//W3C//DTD SVG 1.1//EN" "http://www.w3.org/Graphics/SVG/1.1/DTD/svg11.dtd">
<svg version="1.1" id="Layer_1" xmlns="http://www.w3.org/2000/svg" xmlns:xlink="http://www.w3.org/1999/xlink" x="0px" y="0px"
	 width="54.15px" height="39px" viewBox="48.904 77.305 54.15 39" enable-background="new 48.904 77.305 54.15 39"
	 xml:space="preserve">
<g>
	<g>
		<g>
			<path id="SVGID_1_" fill="#72EBC7" d="M56.224,96.805l12.179-12.18l12.181,12.18l-12.181,12.179L56.224,96.805z M70.323,115.513
				l16.788-16.788c1.056-1.057,1.057-2.785,0-3.841L70.324,78.097c-1.057-1.057-2.784-1.056-3.841,0L49.695,94.885
				c-1.056,1.055-1.056,2.783,0.001,3.841l16.788,16.787C67.541,116.568,69.268,116.568,70.323,115.513"/>
		</g>
		<g>
			<defs>
				<path id="SVGID_2_" d="M56.224,96.805l12.179-12.18l12.181,12.18l-12.181,12.179L56.224,96.805z M70.323,115.513l16.788-16.788
					c1.056-1.057,1.057-2.785,0-3.841L70.324,78.097c-1.057-1.057-2.784-1.056-3.841,0L49.695,94.885
					c-1.056,1.055-1.056,2.783,0.001,3.841l16.788,16.787C67.541,116.568,69.268,116.568,70.323,115.513"/>
			</defs>
			<clipPath id="SVGID_4_">
				<use xlink:href="#SVGID_2_"  overflow="visible"/>
			</clipPath>
			<rect x="68.403" y="73.11" clip-path="url(#SVGID_4_)" fill="#51A589" width="22.459" height="47.731"/>
		</g>
	</g>
	<g>
		<g>
			<path id="SVGID_3_" fill="#72EBC7" d="M71.375,96.805l12.18-12.18l12.179,12.18l-12.179,12.178L71.375,96.805z M85.474,115.512
				l16.787-16.787c1.057-1.057,1.057-2.784,0-3.839l-16.787-16.79c-1.056-1.056-2.783-1.053-3.84,0.001L64.847,94.886
				c-1.056,1.056-1.057,2.783-0.001,3.839l16.788,16.787C82.69,116.568,84.419,116.568,85.474,115.512"/>
		</g>
		<g>
			<defs>
				<path id="SVGID_5_" d="M71.375,96.805l12.18-12.18l12.179,12.18l-12.179,12.178L71.375,96.805z M85.474,115.512l16.787-16.787
					c1.057-1.057,1.057-2.784,0-3.839l-16.787-16.79c-1.056-1.056-2.783-1.053-3.84,0.001L64.847,94.886
					c-1.056,1.056-1.057,2.783-0.001,3.839l16.788,16.787C82.69,116.568,84.419,116.568,85.474,115.512"/>
			</defs>
			<clipPath id="SVGID_6_">
				<use xlink:href="#SVGID_5_"  overflow="visible"/>
			</clipPath>
			<rect x="83.554" y="74.382" clip-path="url(#SVGID_6_)" fill="#51A589" width="23.109" height="45.651"/>
		</g>
	</g>
</g>
</svg>
